<svg width="24" height="24" viewBox="0 0 24 24" fill="none" xmlns="http://www.w3.org/2000/svg">
<path fill-rule="evenodd" clip-rule="evenodd" d="M20 17C20.5523 17 21 17.4477 21 18C21 18.5523 20.5523 19 20 19H18H15.874H13.7324H10.2676H8.12602H6H4C3.44772 19 3 18.5523 3 18C3 17.4477 3.44772 17 4 17H6V10C6 6.68629 8.68629 4 12 4C15.3137 4 18 6.68629 18 10V17H20ZM4 15V12V10C4 5.58172 7.58172 2 12 2C16.4183 2 20 5.58172 20 10V12V15C21.6569 15 23 16.3431 23 18C23 19.6569 21.6569 21 20 21H18H15.874C15.4299 22.7252 13.8638 24 12 24C10.1362 24 8.57006 22.7252 8.12602 21H6H4C2.34315 21 1 19.6569 1 18C1 16.3431 2.34315 15 4 15ZM10.2676 21C10.6134 21.5978 11.2597 22 12 22C12.7403 22 13.3866 21.5978 13.7324 21H10.2676Z" fill="black"/>
<path d="M5.44721 3.89443C5.94119 3.64744 6.14142 3.04676 5.89443 2.55279C5.64744 2.05881 5.04676 1.85858 4.55279 2.10557L5.44721 3.89443ZM1 9C1 9.55228 1.44772 10 2 10C2.55228 10 3 9.55228 3 9H1ZM4.55279 2.10557C3.264 2.74997 2.38529 3.98337 1.83619 5.21886C1.2815 6.46691 1 7.85491 1 9H3C3 8.14509 3.2185 7.03309 3.66381 6.03114C4.11471 5.01663 4.736 4.25003 5.44721 3.89443L4.55279 2.10557Z" fill="black"/>
<path d="M18.5528 3.89443C18.0588 3.64744 17.8586 3.04676 18.1056 2.55279C18.3526 2.05881 18.9532 1.85858 19.4472 2.10557L18.5528 3.89443ZM23 9C23 9.55228 22.5523 10 22 10C21.4477 10 21 9.55228 21 9H23ZM19.4472 2.10557C20.736 2.74997 21.6147 3.98337 22.1638 5.21886C22.7185 6.46691 23 7.85491 23 9H21C21 8.14509 20.7815 7.03309 20.3362 6.03114C19.8853 5.01663 19.264 4.25003 18.5528 3.89443L19.4472 2.10557Z" fill="black"/>
</svg>
