<svg width="24" height="24" viewBox="0 0 24 24" fill="none" xmlns="http://www.w3.org/2000/svg">
<path fill-rule="evenodd" clip-rule="evenodd" d="M3.0998 2.3C2.65798 2.3 2.2998 2.65818 2.2998 3.1V9.9C2.2998 10.3418 2.65798 10.7 3.09981 10.7H9.8998C10.3416 10.7 10.6998 10.3418 10.6998 9.9V3.1C10.6998 2.65818 10.3416 2.3 9.8998 2.3H3.0998ZM3.0998 13.3C2.65798 13.3 2.2998 13.6582 2.2998 14.1V20.9C2.2998 21.3418 2.65798 21.7 3.09981 21.7H9.8998C10.3416 21.7 10.6998 21.3418 10.6998 20.9V14.1C10.6998 13.6582 10.3416 13.3 9.8998 13.3H3.0998ZM13.2998 3.1C13.2998 2.65818 13.658 2.3 14.0998 2.3H20.8998C21.3416 2.3 21.6998 2.65818 21.6998 3.1V9.9C21.6998 10.3418 21.3416 10.7 20.8998 10.7H14.0998C13.658 10.7 13.2998 10.3418 13.2998 9.9V3.1ZM14.0998 13.3C13.658 13.3 13.2998 13.6582 13.2998 14.1V20.9C13.2998 21.3418 13.658 21.7 14.0998 21.7H20.8998C21.3416 21.7 21.6998 21.3418 21.6998 20.9V14.1C21.6998 13.6582 21.3416 13.3 20.8998 13.3H14.0998ZM14.7498 14.75H20.2498V20.25H14.7498V14.75ZM20.2498 3.75H14.7498V9.25H20.2498V3.75ZM3.74981 3.75H9.24981V9.25H3.74981V3.75ZM9.24981 14.75H3.74981V20.25H9.24981V14.75Z" fill="#BFC5D2"/>
<mask id="mask0_0_1368" style="mask-type:alpha" maskUnits="userSpaceOnUse" x="2" y="2" width="20" height="20">
<path fill-rule="evenodd" clip-rule="evenodd" d="M3.0998 2.3C2.65798 2.3 2.2998 2.65818 2.2998 3.1V9.9C2.2998 10.3418 2.65798 10.7 3.09981 10.7H9.8998C10.3416 10.7 10.6998 10.3418 10.6998 9.9V3.1C10.6998 2.65818 10.3416 2.3 9.8998 2.3H3.0998ZM3.0998 13.3C2.65798 13.3 2.2998 13.6582 2.2998 14.1V20.9C2.2998 21.3418 2.65798 21.7 3.09981 21.7H9.8998C10.3416 21.7 10.6998 21.3418 10.6998 20.9V14.1C10.6998 13.6582 10.3416 13.3 9.8998 13.3H3.0998ZM13.2998 3.1C13.2998 2.65818 13.658 2.3 14.0998 2.3H20.8998C21.3416 2.3 21.6998 2.65818 21.6998 3.1V9.9C21.6998 10.3418 21.3416 10.7 20.8998 10.7H14.0998C13.658 10.7 13.2998 10.3418 13.2998 9.9V3.1ZM14.0998 13.3C13.658 13.3 13.2998 13.6582 13.2998 14.1V20.9C13.2998 21.3418 13.658 21.7 14.0998 21.7H20.8998C21.3416 21.7 21.6998 21.3418 21.6998 20.9V14.1C21.6998 13.6582 21.3416 13.3 20.8998 13.3H14.0998ZM14.7498 14.75H20.2498V20.25H14.7498V14.75ZM20.2498 3.75H14.7498V9.25H20.2498V3.75ZM3.74981 3.75H9.24981V9.25H3.74981V3.75ZM9.24981 14.75H3.74981V20.25H9.24981V14.75Z" fill="white"/>
</mask>
<g mask="url(#mask0_0_1368)">
</g>
</svg>
