<svg width="24" height="24" viewBox="0 0 24 24" fill="none" xmlns="http://www.w3.org/2000/svg">
<path fill-rule="evenodd" clip-rule="evenodd" d="M19 14C20.6569 14 22 15.3431 22 17C22 18.6569 20.6569 20 19 20H15.874C15.4299 21.7252 13.8638 23 12 23C10.1362 23 8.57006 21.7252 8.12602 20H5C3.34315 20 2 18.6569 2 17C2 15.3431 3.34315 14 5 14V12V10C5 6.13401 8.13401 3 12 3C15.866 3 19 6.13401 19 10V12V14ZM17 10C17 7.23858 14.7614 5 12 5C9.23858 5 7 7.23858 7 10V16H5C4.44772 16 4 16.4477 4 17C4 17.5523 4.44772 18 5 18H7H8.12602H10.2676H13.7324H15.874H17H19C19.5523 18 20 17.5523 20 17C20 16.4477 19.5523 16 19 16H17V10ZM13.7324 20C13.3866 20.5978 12.7403 21 12 21C11.2597 21 10.6134 20.5978 10.2676 20H13.7324Z" fill="black"/>
<path d="M6.44721 3.89443C6.94119 3.64744 7.14142 3.04676 6.89443 2.55279C6.64744 2.05881 6.04676 1.85858 5.55279 2.10557L6.44721 3.89443ZM2 8.5C2 9.05228 2.44772 9.5 3 9.5C3.55228 9.5 4 9.05228 4 8.5H2ZM5.55279 2.10557C3.09727 3.33333 2 6.27224 2 8.5H4C4 6.72776 4.90273 4.66667 6.44721 3.89443L5.55279 2.10557Z" fill="black"/>
<path d="M17.5528 3.89443C17.0588 3.64744 16.8586 3.04676 17.1056 2.55279C17.3526 2.05881 17.9532 1.85858 18.4472 2.10557L17.5528 3.89443ZM22 8.5C22 9.05228 21.5523 9.5 21 9.5C20.4477 9.5 20 9.05228 20 8.5H22ZM18.4472 2.10557C20.9027 3.33333 22 6.27224 22 8.5H20C20 6.72776 19.0973 4.66667 17.5528 3.89443L18.4472 2.10557Z" fill="black"/>
</svg>
