<svg width="24" height="24" viewBox="0 0 24 24" fill="none" xmlns="http://www.w3.org/2000/svg">
<circle cx="12" cy="12" r="8" stroke="black" stroke-width="2"/>
<path fill-rule="evenodd" clip-rule="evenodd" d="M14.4999 16.232C17.2316 14.6549 19.5918 12.9137 21.1953 11.3156C21.9864 10.5273 22.6802 9.68863 23.1155 8.84743C23.5065 8.09203 23.9665 6.77228 23.232 5.50002C22.4869 4.20942 21.0855 3.96736 20.2423 3.93753C19.2926 3.90393 18.2136 4.0955 17.1295 4.39513C16.6527 4.52691 16.1522 4.68605 15.6329 4.87058C16.3777 5.25084 17.055 5.74437 17.6421 6.32845C19.6413 5.77314 21.0843 5.78016 21.5 6.50002C21.9188 7.22556 21.2139 8.48612 19.7343 9.94785C19.8892 10.5331 19.9794 11.1446 19.9969 11.7742C19.9794 11.1581 19.8909 10.5456 19.7328 9.9494C18.2862 11.3781 16.0999 12.9989 13.4999 14.5C10.8782 16.0136 8.34366 17.12 6.35787 17.6716C6.94772 18.2583 7.6263 18.7503 8.36919 19.1287C10.2437 18.4624 12.3634 17.4655 14.4999 16.232ZM8.36699 19.1294C7.62225 18.7492 6.94496 18.2556 6.35785 17.6716C4.35858 18.2269 2.91557 18.2199 2.49995 17.5C2.08106 16.7745 2.78604 15.5139 4.26562 14.0521C4.09231 13.3972 3.99998 12.7094 3.99998 12C3.99998 11.8577 4.0037 11.7163 4.01103 11.5759C3.57279 11.9504 3.16912 12.3211 2.80456 12.6844C2.01354 13.4727 1.31971 14.3114 0.884371 15.1526C0.493431 15.908 0.0333648 17.2277 0.767903 18.5C1.51303 19.7906 2.91445 20.0327 3.75762 20.0625C4.70729 20.0961 5.78632 19.9045 6.87044 19.6049C7.34722 19.4731 7.84769 19.314 8.36699 19.1294ZM19.9969 11.7742C19.9989 11.8492 20 11.9245 20 12C20 12.0839 19.9987 12.1675 19.9961 12.2507C20.0011 12.0918 20.0013 11.9329 19.9969 11.7742Z" fill="black"/>
</svg>
